<!-- public/signature-icon.svg -->
<svg xmlns="http://www.w3.org/2000/svg" width="32" height="32" viewBox="0 0 32 32">
  <title>signature</title>
  <g fill="#7300ff">
    <path fill-rule="evenodd" clip-rule="evenodd" d="M9.5 2L9.5 5.00001H7.5L7.5 2H9.5Z"></path>
    <path fill-rule="evenodd" clip-rule="evenodd" d="M9.5 25L9.5 30H7.5L7.5 25H9.5Z"></path>
    <path fill-rule="evenodd" clip-rule="evenodd" d="M18 8V17H16V10L12 10L12 8.00001L18 8Z"></path>
    <path d="M12 23.5V19H5V23.5C5 25.433 6.567 27 8.5 27C10.433 27 12 25.433 12 23.5Z"></path>
    <path fill-rule="evenodd" clip-rule="evenodd" d="M19.118 24.0176C18.166 25.0115 17.0477 26.7397 15.9203 29.3913L15.529 30.3116L13.6884 29.529L14.0797 28.6087C15.2588 25.8356 16.4922 23.8676 17.6737 22.6342C18.7977 21.4607 20.141 20.697 21.4366 21.1041C22.2863 21.3711 22.6502 22.1963 22.8281 22.7076C23.0304 23.2893 23.1628 24.0007 23.2799 24.594C23.4069 25.2375 23.5189 25.7612 23.6703 26.1401C23.7072 26.2325 23.7397 26.2995 23.7663 26.3475C24.3501 25.9155 24.7548 25.2889 25.3662 24.8823C25.7527 24.6253 26.3266 24.3749 27.0032 24.549C27.544 24.6882 27.9018 25.0198 28.1384 25.3485C28.3385 25.6265 28.4812 25.9476 28.5781 26.1656C28.6575 26.3443 28.7693 26.76 28.9848 26.8269C29.0033 26.8326 29.0469 26.8414 29.136 26.8226C29.5761 26.7297 29.9954 26.3948 30.3802 26.178L31.3622 27.9203L30.491 28.4113C29.9661 28.7071 29.2035 28.9889 28.3919 28.7369C27.39 28.4259 26.9937 27.5282 26.7982 27.0855C26.7537 26.9846 26.5894 26.4708 26.4737 26.5477C26.3099 26.6566 26.1218 26.8398 25.8506 27.1201C25.6163 27.3622 25.2943 27.7053 24.9532 27.9572C24.6134 28.2082 24.0642 28.5142 23.3881 28.3884C22.4634 28.2164 22.0271 27.4179 21.813 26.882C21.3614 25.7516 21.3369 24.5084 20.9391 23.3647C20.8637 23.1481 20.8033 23.0443 20.7736 23.0003C20.5642 22.9812 20.0131 23.083 19.118 24.0176Z"></path>
    <path d="M8.5 3C6.01472 3 4 5.01472 4 7.5V17H13V7.5C13 5.01472 10.9853 3 8.5 3Z"></path>
  </g>
</svg>